# xmcd CD database file
#
# Track frame offsets:
#	150
#	12427
#	27089
#	46549
#	72479
#	94394
#	114486
#	136323
#	159155
#	174358
#	188858
#	208867
#	226195
#	270262
#
# Disc length: 3818 seconds
#
# Revision: 0
# Processed by: cddbd v1.5.2PL0 Copyright (c) Steve Scherf et al.
# Submitted via: CDex 1.51
#
DISCID=b00ee80e
DTITLE=Philipp Fankhauser - Home
DYEAR=2015
DGENRE=Blues
TTITLE0=Daily Bread
TTITLE1=Learned My Lesson
TTITLE2=Nobody But You
TTITLE3=Promised Myself
TTITLE4=Rainy Night In Georgia
TTITLE5=The Chokin' Kind
TTITLE6=Once Is Not Enough
TTITLE7=I Sing The Blues
TTITLE8=Sweet Sensations
TTITLE9=Runnin' In Circles
TTITLE10=I Love To Be Loved By You
TTITLE11=Louisiana Lover Man
TTITLE12=Home
TTITLE13=Pie In The Sky
EXTD=YEAR: 2015
EXTT0=
EXTT1=
EXTT2=
EXTT3=
EXTT4=
EXTT5=
EXTT6=
EXTT7=
EXTT8=
EXTT9=
EXTT10=
EXTT11=
EXTT12=
EXTT13=
PLAYORDER=
